# AST/ASF file generated using VICON BodyLanguage
# -----------------------------------------------
:version 1.10
:name VICON
:units
  mass 1.0
  length 0.45
  angle deg
:documentation
   .ast/.asf automatically generated from VICON data using
   VICON BodyBuilder and BodyLanguage model FoxedUp or BRILLIANT.MOD
:root
   order TX TY TZ RX RY RZ
   axis XYZ
   position 0 0 0  
   orientation 0 0 0 
:bonedata
  begin
     id 1 
     name lhipjoint
     direction 0.576517 -0.752066 0.319413 
     length 2.45433 
     axis 0 0 0  XYZ
  end
  begin
     id 2 
     name lfemur
     direction 0.34202 -0.939693 0  
     length 7.54459  
     axis 0 0 20  XYZ
    dof rx ry rz
    limits (-160.0 20.0)
           (-70.0 70.0)
           (-60.0 70.0)
  end
  begin
     id 3 
     name ltibia
     direction 0.34202 -0.939693 0   
     length 7.73986   
     axis 0 0 20   XYZ
    dof rx
    limits (-10.0 170.0)
  end
  begin
     id 4 
     name lfoot
     direction 0.090693 -0.249177 0.964202   
     length 2.28437   
     axis -90 7.62852e-016 20   XYZ
    dof rx rz
    limits (-45.0 90.0)
           (-70.0 20.0)
  end
  begin
     id 5 
     name ltoes
     direction 1.5356e-011 -4.21928e-011 1   
     length 1.14243   
     axis -90 7.62852e-016 20   XYZ
    dof rx
    limits (-90.0 20.0)
  end
  begin
     id 6 
     name rhipjoint
     direction -0.573937 -0.753736 0.320122   
     length 2.44889  
     axis 0 0 0  XYZ 
  end
  begin
     id 7 
     name rfemur
     direction -0.34202 -0.939693 0   
     length 7.50166   
     axis 0 0 -20   XYZ
    dof rx ry rz
    limits (-160.0 20.0)
           (-70.0 70.0)
           (-70.0 60.0)
  end
  begin
     id 8 
     name rtibia
     direction -0.34202 -0.939693 0   
     length 7.54266   
     axis 0 0 -20   XYZ
    dof rx
    limits (-10.0 170.0)
 end
 begin
     id 9 
     name rfoot
     direction -0.114017 -0.31326 0.942798   
     length 2.34212  
     axis -90 -7.62852e-016 -20   XYZ
    dof rx rz
    limits (-45.0 90.0)
           (-20.0 70.0)
  end
  begin
     id 10 
     name rtoes
     direction -1.53557e-011 -4.21867e-011 1   
     length 1.16246   
     axis -90 -7.62852e-016 -20   XYZ
    dof rx
    limits (-90.0 20.0)
  end
  begin
     id 11 
     name lowerback
     direction -0.0228371 0.999155 -0.034167   
     length 2.0537   
     axis 0 0 0   XYZ
    dof rx ry rz
    limits (-20.0 45.0)
           (-30.0 30.0)
           (-30.0 30.0)
  end
  begin
     id 12 
     name upperback
     direction 0.0198981 0.999794 0.00389455   
     length 2.05302   
     axis 0 0 0   XYZ
    dof rx ry rz
    limits (-20.0 45.0)
           (-30.0 30.0)
           (-30.0 30.0)
  end
  begin
     id 13 
     name thorax
     direction 0.0304566 0.99935 0.0192987   
     length 2.05315   
     axis 0 0 0   XYZ
    dof rx ry rz
    limits (-20.0 45.0)
           (-30.0 30.0)
           (-30.0 30.0)
  end
  begin
     id 14 
     name lowerneck
     direction -0.0196762 0.99417 0.106017   
     length 1.82056   
     axis 0 0 0   XYZ
    dof rx ry rz
    limits (-20.0 45.0)
           (-30.0 30.0)
           (-30.0 30.0)
  end
  begin
     id 15 
     name upperneck
     direction 0.00517787 0.9802 -0.197944   
     length 1.83835   
     axis 0 0 0   XYZ
    dof rx ry rz
    limits (-20.0 45.0)
           (-30.0 30.0)
           (-30.0 30.0)
  end
  begin
     id 16
     name head
     direction 0.00211419 0.996945 -0.078081  
     length 1.85629  
     axis 0 0 0   XYZ
    dof rx ry rz
    limits (-20.0 45.0)
           (-30.0 30.0)
           (-30.0 30.0)
  end
  begin
     id 17 
     name lclavicle
     direction 0.930001 0.365811 -0.0357824  
     length 3.81961  
     axis 0 0 0   XYZ
    dof ry rz
    limits (-20.0 10.0)
           (0.0 20.0)
  end
  begin
     id 18 
     name lhumerus
     direction 1 -4.48968e-011 -3.06644e-027   
     length 5.14507   
     axis 180 -30 -90   XYZ
    dof rx ry rz
    limits (-60.0 90.0)
           (-90.0 90.0)
           (-90.0 90.0)
  end
  begin
     id 19
     name lradius
     direction 1 -4.48965e-011 9.06925e-028   
     length 3.50646   
     axis 180 -30 -90   XYZ
    dof rx
    limits (-10.0 170.0)
  end
  begin
     id 20
     name lwrist
     direction 1 -4.48957e-011 1.03922e-027   
     length 1.75323   
     axis -2.56395e-016 90 90   XYZ
    dof ry
    limits (-180.0 0.0)
 end
  begin
     id 21 
     name lhand
     direction 1 -4.48967e-011 2.08017e-027   
     length 0.629969   
     axis -1.32723e-015 90 90   XYZ
    dof rx rz
    limits (-90.0 90.0)
           (-45.0 45.0)
  end
  begin
     id 22 
     name lfingers
     direction 1 -4.49089e-011 4.20095e-027   
     length 0.507897   
     axis -2.6545e-015 90 90   XYZ
    dof rx
    limits (0.0 90.0)
  end
  begin
     id 23
     name lthumb
     direction 0.707107 -6.35001e-011 0.707107   
     length 0.729241   
     axis -90 45 5.05613e-014   XYZ
    dof rx rz
    limits (-45.0 45.0)
           (-45.0 45.0)
  end
  begin
     id 24 
     name rclavicle
     direction -0.881882 0.464123 -0.0829113   
     length 3.47515  
     axis 0 0 0   XYZ 
    dof ry rz
    limits (-10.0 20.0)
           (-20.0 0.0)
  end
  begin
     id 25 
     name rhumerus
     direction -1 -4.48961e-011 -1.55672e-027  
     length 5.232   
     axis 180 30 90   XYZ
    dof rx ry rz
    limits (-90.0 60.0)
           (-90.0 90.0)
           (-90.0 90.0)
  end
  begin
     id 26 
     name rradius
     direction -1 -4.48963e-011 6.18178e-029   
     length 3.65641   
     axis 180 30 90   XYZ
    dof rx
    limits (-10.0 170.0)
  end
  begin
     id 27 
     name rwrist
     direction -1 -4.48982e-011 1.04136e-027   
     length 1.8282   
     axis -2.56395e-016 -90 -90   XYZ
    dof ry
    limits (-180.0 0.0)
  end
  begin
     id 28
     name rhand
     direction -1 -4.48929e-011 2.07378e-027   
     length 0.656807   
     axis -1.32723e-015 -90 -90   XYZ
    dof rx rz
    limits (-90.0 90.0)
           (-45.0 45.0)
  end
  begin
     id 29
     name rfingers
     direction -1 -4.489e-011 4.13816e-027   
     length 0.529535   
     axis -2.6545e-015 -90 -90   XYZ
    dof rx
    limits (0.0 90.0)
  end
  begin
     id 30
     name rthumb
     direction -0.707107 -6.34843e-011 0.707107   
     length 0.760309   
     axis -90 -45 -5.05613e-014   XYZ
    dof rx rz
    limits (-45.0 45.0)
           (-45.0 45.0)
  end
:hierarchy
  begin
    root lhipjoint rhipjoint lowerback
    lhipjoint lfemur
    lfemur ltibia
    ltibia lfoot
    lfoot ltoes
    rhipjoint rfemur
    rfemur rtibia
    rtibia rfoot
    rfoot rtoes
    lowerback upperback
    upperback thorax
    thorax lowerneck lclavicle rclavicle
    lowerneck upperneck
    upperneck head
    lclavicle lhumerus
    lhumerus lradius
    lradius lwrist
    lwrist lhand lthumb
    lhand lfingers
    rclavicle rhumerus
    rhumerus rradius
    rradius rwrist
    rwrist rhand rthumb
    rhand rfingers
  end

#!OML:ASF H:\ManfredETheater\Project 1\Capture day 1\Session 1\subject.ASF
:FULLY-SPECIFIED
:DEGREES
1
root 22.0801 14.7355 42.5152 -158.224 -13.7989 -168.37
lowerback 17.5347 1.65193 6.89347
upperback -1.83391 3.75332 1.66493
thorax -11.5986 1.32192 -3.06411
lowerneck -18.1344 -0.0748587 -0.703264
upperneck 1.13147 -0.219108 -1.45517
head 3.60169 -0.34618 -0.392296
rclavicle -4.19436e-014 -5.08889e-014
rhumerus -34.6211 18.4271 -100.377
rradius 75.7417
rwrist 3.11701
rhand -20.0337 -3.25342
rfingers 7.12502
rthumb 6.30729 -33.1395
lclavicle -4.19436e-014 -5.08889e-014
lhumerus -37.8466 2.55639 84.9773
lradius 65.326
lwrist 3.99492
lhand -34.4683 -8.39538
lfingers 7.12502
lthumb -7.63163 21.4469
rfemur 12.4702 7.74442 28.9867
rtibia 12.5585
rfoot 27.5421 -4.27353
rtoes -30.2046
lfemur -85.4632 13.371 -25.4915
ltibia 62.6172
lfoot -9.98661 9.99274
ltoes 33.2862
2
root 22.0085 14.7768 42.184 -158.195 -15.9226 -168.539
lowerback 17.8117 1.2487 6.98861
upperback -1.75823 3.2524 1.58446
thorax -11.7131 1.07621 -3.08681
lowerneck -18.0113 -0.419419 -0.973185
upperneck 0.802567 -0.669388 -0.97039
head 3.45952 -0.549707 -0.217575
rclavicle -5.74488e-014 5.96354e-015
rhumerus -34.8969 17.4787 -100.124
rradius 75.9729
rwrist 3.17787
rhand -20.421 -3.03408
rfingers 7.12502
rthumb 5.93335 -32.931
lclavicle -5.74488e-014 5.96354e-015
lhumerus -36.9536 1.54732 85.1117
lradius 64.6863
lwrist 4.34486
lhand -34.5694 -8.62699
lfingers 7.12502
lthumb -7.72915 21.2118
rfemur 10.5049 7.22277 29.6669
rtibia 15.9813
rfoot 31.4822 -4.30211
rtoes -27.5374
lfemur -84.9787 12.6349 -25.8911
ltibia 63.5689
lfoot -10.7443 9.77233
ltoes 33.2585
3
root 21.9388 14.8258 41.8621 -158.021 -17.7627 -169.069
lowerback 18.1942 0.958628 6.65649
upperback -1.65105 2.81161 1.42077
thorax -11.8622 0.885362 -2.97719
lowerneck -17.9897 -0.797166 -1.32414
upperneck 0.491961 -1.14532 -0.517346
head 3.34888 -0.771331 -0.0421041
rclavicle -2.3059e-014 2.94201e-014
rhumerus -34.8921 16.6063 -99.7312
rradius 75.7855
rwrist 2.87358
rhand -20.745 -2.6724
rfingers 7.12502
rthumb 5.62057 -32.5779
lclavicle -2.3059e-014 2.94201e-014
lhumerus -35.8068 0.528447 85.2975
lradius 63.9458
lwrist 4.47294
lhand -34.4169 -9.19117
lfingers 7.12502
lthumb -7.58201 20.6529
rfemur 7.46211 6.50896 29.8654
rtibia 21.5804
rfoot 33.5641 -3.19972
rtoes -21.2595
lfemur -84.3242 12.0273 -26.6366
ltibia 64.2998
lfoot -12.6872 7.36255
ltoes 32.9252
4
root 21.8688 14.8664 41.5456 -157.799 -19.5583 -169.547
lowerback 18.6526 0.719193 6.45668
upperback -1.60502 2.47372 1.26313
thorax -12.1083 0.728703 -2.96208
lowerneck -17.9763 -1.24014 -1.77921
upperneck 0.35472 -1.67035 -0.0829919
head 3.30836 -1.01538 0.140798
rclavicle -5.14852e-014 6.36111e-015
rhumerus -35.1287 15.7797 -99.2639
rradius 75.6178
rwrist 2.47072
rhand -21.6815 -2.3239
rfingers 7.12502
rthumb 4.71632 -32.2514
lclavicle -5.14852e-014 6.36111e-015
lhumerus -34.6144 -0.676219 85.5507
lradius 63.2007
lwrist 4.43835
lhand -34.1105 -9.8083
lfingers 7.12502
lthumb -7.2862 20.0462
rfemur 4.93278 5.55286 30.0566
rtibia 26.2541
rfoot 34.776 -5.24319
rtoes -9.50363
lfemur -83.7265 11.5058 -27.2638
ltibia 65.0369
lfoot -14.0494 5.26897
ltoes 33.3263
5
root 21.7981 14.9149 41.23 -157.722 -21.3574 -169.949
lowerback 18.9408 0.414946 6.29986
upperback -1.41581 2.03458 1.16392
thorax -12.1007 0.534383 -2.86674
lowerneck -17.8011 -1.50632 -1.97595
upperneck 0.167217 -1.99964 0.057229
head 3.21534 -1.17409 0.197323
rclavicle -2.54444e-014 9.93923e-015
rhumerus -35.0137 14.98 -98.6703
rradius 75.2753
rwrist 2.0547
rhand -22.3969 -2.76081
rfingers 7.12502
rthumb 4.02553 -32.7025
lclavicle -2.54444e-014 9.93923e-015
lhumerus -33.0436 -1.43915 85.6775
lradius 62.5061
lwrist 3.59191
lhand -33.8232 -10.6625
lfingers 7.12502
lthumb -7.00894 19.2014
rfemur 2.31483 3.71248 30.2475
rtibia 31.3035
rfoot 30.1107 -3.93296
rtoes -12.6002
lfemur -82.892 11.114 -27.7616
ltibia 65.7058
lfoot -15.3159 4.94902
ltoes 31.612
6
root 21.7289 14.9531 40.9132 -157.618 -23.1531 -170.409
lowerback 19.3858 0.128195 6.14526
upperback -1.2659 1.63043 1.04022
thorax -12.2232 0.349803 -2.81042
lowerneck -17.6855 -1.83924 -2.23469
upperneck 0.0170784 -2.40853 0.300282
head 3.15211 -1.36794 0.292201
rclavicle 1.13307e-014 -3.06128e-014
rhumerus -35.0572 14.1612 -98.1689
rradius 74.9832
rwrist 1.66766
rhand -23.09 -2.81435
rfingers 7.12502
rthumb 3.35621 -32.7677
lclavicle 1.13307e-014 -3.06128e-014
lhumerus -31.7003 -2.32803 85.8458
lradius 61.8484
lwrist 3.07645
lhand -33.5834 -11.2838
lfingers 7.12502
lthumb -6.77741 18.5877
rfemur -0.308701 2.16949 30.396
rtibia 36.2614
rfoot 27.8378 -3.19216
rtoes -11.5586
lfemur -82.023 10.6997 -28.1978
ltibia 66.3481
lfoot -16.5909 3.77745
ltoes 31.0745
7
root 21.6594 14.9889 40.5973 -157.521 -24.8941 -170.922
lowerback 19.8632 -0.144439 5.96545
upperback -1.10338 1.23687 0.907698
thorax -12.3476 0.171492 -2.74867
lowerneck -17.5648 -2.15987 -2.46588
upperneck -0.0627862 -2.79908 0.489255
head 3.1137 -1.55356 0.365654
rclavicle 1.94809e-014 -2.94201e-014
rhumerus -35.0824 13.3405 -97.6358
rradius 74.5897
rwrist 1.26798
rhand -23.7889 -2.92958
rfingers 7.12502
rthumb 2.68127 -32.8925
lclavicle 1.94809e-014 -2.94201e-014
lhumerus -30.338 -3.14572 86.0223
lradius 61.247
lwrist 2.38571
lhand -33.3495 -11.8887
lfingers 7.12502
lthumb -6.55161 17.99
rfemur -2.95825 0.464541 30.4683
rtibia 41.2308
rfoot 24.5695 -2.2958
rtoes -12.3644
lfemur -81.0601 10.3448 -28.608
ltibia 66.9504
lfoot -17.873 2.57519
ltoes 30.5664
